<svg xmlns="http://www.w3.org/2000/svg" viewBox="0 0 35 40" class="design-iconfont">
  <g fill="#FFF" fill-rule="nonzero" stroke="#FFF" stroke-width=".8">
    <path d="M16.736319,12.9205267 C18.2958062,12.9205267 19.7580155,13.475315 20.8592324,14.4792539 C21.9612093,15.4847128 22.5691965,16.8177248 22.5691965,18.240415 C22.5691965,19.6631051 21.9612093,20.9961171 20.8592324,22.001576 C19.7572556,23.0055149 18.2958063,23.5603032 16.736319,23.5603032 C15.1768318,23.5603032 13.7146225,23.0055149 12.6134056,22.001576 C11.5114288,20.9961171 10.9034415,19.663105 10.9034415,18.240415 C10.9034415,16.8177248 11.5114287,15.4847128 12.6134056,14.4792539 C13.7153825,13.475315 15.1768318,12.9205267 16.736319,12.9205267 Z M16.736319,10.6405746 C12.2258137,10.6405746 8.57105048,14.0422631 8.57105048,18.240415 C8.57105048,22.4385668 12.2258137,25.8402553 16.736319,25.8402553 C21.2468243,25.8402553 24.9015876,22.4385668 24.9015876,18.240415 C24.9015876,14.0422631 21.2468243,10.6405746 16.736319,10.6405746 Z M17.5137827,4.56070222 L15.1806317,4.56070222 C14.5392052,4.56070222 14.0148162,5.07369146 14.0148162,5.70067829 C14.0148162,6.32766511 14.5392052,6.84065435 15.1806317,6.84065435 L17.5137827,6.84065435 C18.1552092,6.84065435 18.6803582,6.32766511 18.6803582,5.70067829 C18.6803582,5.07369146 18.1559692,4.56070222 17.5137827,4.56070222 Z" transform="translate(1 1)"/>
    <path d="M33.4399836,16.0311705 C33.4399836,7.23283528 26.0476188,0.0897452722 16.8951311,0.000827127663 C7.62940564,-0.0880910169 0.0865640201,7.00332006 0.000685838451,15.8837336 C-0.0639127885,22.7995883 4.44127258,28.719864 10.8000591,31.0264156 C11.7599189,31.3760083 12.3869057,32.2621497 12.3869057,33.2417691 L12.3869057,35.3271653 C12.383168,35.4947717 12.244446,35.6277137 12.0768322,35.624319 L9.29073075,35.624319 C7.92427944,35.624319 6.81318278,36.6890567 6.81318278,37.9992692 L26.6290066,37.9992692 C26.6290066,36.6890567 25.5186699,35.624319 24.1522187,35.624319 L21.3653572,35.624319 C21.1983271,35.6272941 21.0601936,35.4949303 21.0560437,35.3279253 L21.0560437,33.2417691 C21.0560437,32.2553098 21.6944303,31.3722083 22.6542901,31.0226157 C28.9583577,28.7267039 33.4399836,22.8824266 33.4399836,16.0319305 L33.4399836,16.0311705 Z M18.3406207,35.719317 L15.1000487,35.719317 C14.9258742,35.723148 14.7812669,35.5856692 14.7762956,35.4115235 L14.7762956,31.9193969 C15.4162021,31.9885554 16.0644685,32.0235147 16.7203347,32.0235147 C17.3762009,32.0235147 18.0244673,31.9885554 18.6643739,31.9193969 L18.6643739,35.4115235 C18.6594026,35.5856692 18.5147952,35.723148 18.3406207,35.719317 L18.3406207,35.719317 Z M16.7203347,29.6394447 C14.7770555,29.6394447 12.8930551,29.2792123 11.1222923,28.5648273 C9.42517079,27.8864627 7.87274222,26.8911442 6.54794835,25.6320489 C5.24301922,24.399787 4.19465183,22.921638 3.46317314,21.2826602 C2.71525912,19.6079452 2.33037514,17.7938622 2.33381371,15.959732 C2.33381371,14.1122108 2.71306888,12.3201684 3.46317314,10.6368038 C4.19487689,8.99776113 5.24350595,7.51960742 6.54870835,6.28741513 C7.87321214,5.02812872 9.4253804,4.03255386 11.1222923,3.35387673 C12.8930551,2.64101169 14.7778155,2.28001926 16.7203347,2.28001926 C18.6636139,2.28001926 20.5476143,2.64025169 22.3183772,3.35463669 C24.0154987,4.03300131 25.5679272,5.02831978 26.8927211,6.28741513 C28.1976502,7.51967701 29.2460176,8.99782595 29.9774963,10.6368038 C30.7254103,12.3115188 31.1102943,14.1256018 31.1068557,15.959732 C31.1068557,17.8072532 30.7276006,19.5992955 29.9774963,21.2826602 C29.2457926,22.9217029 28.1971635,24.3998566 26.8919611,25.6320489 C25.5674573,26.8913353 24.0152891,27.8869101 22.3183772,28.5655873 C20.5476144,29.2784523 18.6628539,29.6394447 16.7203347,29.6394447 Z" transform="translate(1 1)"/>
  </g>
</svg>
