<svg xmlns="http://www.w3.org/2000/svg" viewBox="0 0 39 40" class="design-iconfont">
  <path d="M53.7845238,8.84009865 L37.2344573,0.208372387 C36.7052634,-0.0677158005 36.0749358,-0.0695441619 35.5441491,0.20346939 L18.9989856,8.70158899 C18.3856449,9.01611187 18,9.64745515 18,10.3367385 L18,27.9115313 C18,28.6089827 18.3946913,29.2463723 19.0185976,29.5577126 L35.5662126,37.8070051 C36.0826156,38.0643316 36.6898621,38.0643316 37.2062651,37.8070051 L53.7538801,29.5577126 C54.3777854,29.2468171 54.7724777,28.6098322 54.7724777,27.9127571 L54.7724777,10.4715709 C54.7724777,9.78515133 54.3912697,9.15756771 53.7845238,8.84009865 Z M36.2477292,17.1494529 L30.035632,14.0924342 L44.1072334,6.55775354 L50.1746922,9.72263812 L36.2477292,17.1494529 L36.2477292,17.1494529 Z M36.3813359,2.52871573 L41.4755498,5.18614012 L27.3291776,12.7612705 L21.778985,10.0290754 L36.3813359,2.52871573 Z M20.4514985,12.1091719 L26.320386,14.9970372 L26.320386,21.4420268 C26.320386,22.1189894 26.8691726,22.667776 27.5461352,22.667776 C28.2230978,22.667776 28.7718845,22.1189894 28.7718845,21.4420268 L28.7718845,16.2044002 L35.1604896,19.3459955 L35.1604896,34.8664326 L20.4514985,27.5327748 L20.4514985,12.1091719 Z M37.6119881,34.8664326 L37.6119881,19.1989056 L52.3209792,11.3565619 L52.3209792,27.5327748 L37.6119881,34.8664326 Z" transform="translate(-17 1)" fill="#FFF" fill-rule="nonzero" stroke="#FFF" stroke-width=".5"/>
</svg>
