<svg xmlns="http://www.w3.org/2000/svg" viewBox="0 0 29 40" class="design-iconfont">
  <path d="M36.5011313,34.4377575 C37.4400925,34.4377575 38.2618533,33.606476 38.2618533,32.6561785 C38.2618533,31.7058809 37.4391875,30.8750572 36.5011313,30.8750572 C35.5630751,30.8750572 34.7399568,31.7063387 34.7399568,32.6561785 C34.7399568,33.6060183 35.5617175,34.4377575 36.5011313,34.4377575 Z M45.3042888,0 L27.6957112,0 C25.1132284,0 23,2.13725396 23,4.75011445 L23,33.2498856 C23,35.8622883 25.1132284,38 27.6957112,38 L45.3042888,38 C47.8867716,38 50,35.8622883 50,33.2498856 L50,4.75011445 C50,2.13725396 47.8867716,0 45.3042888,0 Z M47.6519182,33.2498856 C47.6484352,34.5598564 46.5992577,35.6207801 45.3042888,35.6237984 L27.6957112,35.6237984 C26.4003901,35.6207781 25.3510676,34.5592984 25.3480818,33.2489701 L25.3480818,29.6876431 L47.6519182,29.6876431 L47.6519182,33.2498856 Z M47.6519182,27.3123569 L25.3480818,27.3123569 L25.3480818,8.31235694 L47.6519182,8.31235694 L47.6519182,27.3123569 Z M47.6519182,5.93523985 L25.3480818,5.93523985 L25.3480818,4.75011445 C25.3508189,3.4396073 26.4002139,2.37784964 27.6957112,2.37482833 L45.3042888,2.37482833 C46.5997861,2.37784964 47.6491811,3.4396073 47.6519182,4.75011445 L47.6519182,5.93523985 Z" transform="translate(-22 1)" fill="#FFF" fill-rule="nonzero" stroke="#FFF" stroke-width=".5"/>
</svg>
