<svg xmlns="http://www.w3.org/2000/svg" viewBox="0 0 67 59" class="design-iconfont">
  <path d="M1078.54158,1270.8597 L1078.54158,1266.63735 C1078.54158,1265.97612 1079.08156,1265.44008 1079.74767,1265.44008 C1080.41377,1265.44008 1080.95375,1265.97612 1080.95375,1266.63735 L1080.95375,1270.8597 C1080.95375,1271.52093 1080.41377,1272.05697 1079.74767,1272.05697 C1079.08156,1272.05697 1078.54158,1271.52093 1078.54158,1270.8597 L1078.54158,1270.8597 Z M1086.06756,1272.05697 C1086.73366,1272.05697 1087.27364,1271.52093 1087.27364,1270.8597 L1087.27364,1266.63735 C1087.27364,1265.97612 1086.73366,1265.44008 1086.06756,1265.44008 C1085.40145,1265.44008 1084.86147,1265.97612 1084.86147,1266.63735 L1084.86147,1270.8597 C1084.86147,1271.17724 1084.98854,1271.48176 1085.21472,1271.7063 C1085.44091,1271.93083 1085.74768,1272.05697 1086.06756,1272.05697 Z M1079.74767,1283.09575 C1080.41377,1283.09575 1080.95375,1282.55971 1080.95375,1281.89848 L1080.95375,1277.70806 C1080.95375,1277.04682 1080.41377,1276.51079 1079.74767,1276.51079 C1079.08156,1276.51079 1078.54158,1277.04682 1078.54158,1277.70806 L1078.54158,1281.93041 C1078.55901,1282.57914 1079.09392,1283.09598 1079.74767,1283.09575 Z M1086.05147,1283.09575 C1086.71758,1283.09575 1087.25756,1282.55971 1087.25756,1281.89848 L1087.25756,1277.70806 C1087.25756,1277.04682 1086.71758,1276.51079 1086.05147,1276.51079 C1085.38537,1276.51079 1084.84539,1277.04682 1084.84539,1277.70806 L1084.84539,1281.93041 C1084.86293,1282.58539 1085.40758,1283.10472 1086.06756,1283.09575 L1086.05147,1283.09575 Z M1079.74767,1294.14251 C1080.41377,1294.14251 1080.95375,1293.60648 1080.95375,1292.94525 L1080.95375,1288.72289 C1080.95375,1288.06166 1080.41377,1287.52563 1079.74767,1287.52563 C1079.08156,1287.52563 1078.54158,1288.06166 1078.54158,1288.72289 L1078.54158,1292.94525 C1078.54158,1293.60648 1079.08156,1294.14251 1079.74767,1294.14251 L1079.74767,1294.14251 Z M1086.05147,1294.14251 C1086.71758,1294.14251 1087.25756,1293.60648 1087.25756,1292.94525 L1087.25756,1288.72289 C1087.25756,1288.06166 1086.71758,1287.52563 1086.05147,1287.52563 C1085.38537,1287.52563 1084.84539,1288.06166 1084.84539,1288.72289 L1084.84539,1292.94525 C1084.84536,1293.26557 1084.97463,1293.57254 1085.20431,1293.79753 C1085.43398,1294.02253 1085.7449,1294.14678 1086.06756,1294.14251 L1086.05147,1294.14251 Z M1079.74767,1304.44697 C1080.41377,1304.44697 1080.95375,1303.91094 1080.95375,1303.24971 L1080.95375,1299.02735 C1080.95375,1298.36612 1080.41377,1297.83009 1079.74767,1297.83009 C1079.08156,1297.83009 1078.54158,1298.36612 1078.54158,1299.02735 L1078.54158,1303.24971 C1078.54158,1303.91094 1079.08156,1304.44697 1079.74767,1304.44697 Z M1086.05147,1304.44697 C1086.71758,1304.44697 1087.25756,1303.91094 1087.25756,1303.24971 L1087.25756,1299.02735 C1087.25756,1298.36612 1086.71758,1297.83009 1086.05147,1297.83009 C1085.38537,1297.83009 1084.84539,1298.36612 1084.84539,1299.02735 L1084.84539,1303.24971 C1084.84536,1303.57003 1084.97463,1303.877 1085.20431,1304.10199 C1085.43398,1304.32699 1085.7449,1304.45124 1086.06756,1304.44697 L1086.05147,1304.44697 Z M1125,1260.54726 L1125,1309.80274 C1125,1310.46397 1124.46002,1311 1123.79391,1311 L1061.20611,1311 C1060.54001,1311 1060.00001,1310.46397 1060.00001,1309.80274 L1060.00001,1260.57919 C1059.99786,1260.09488 1060.28982,1259.65698 1060.73976,1259.46972 L1072.80061,1254.50506 L1072.80061,1254.50506 L1073.80568,1254.09001 C1074.06119,1253.98568 1074.34503,1253.9716 1074.60974,1254.0501 L1092.50001,1259.35 L1110.35812,1254.06607 C1110.62275,1253.9869 1110.90682,1254.001 1111.16218,1254.10598 L1112.16725,1254.52103 L1112.16725,1254.52103 L1124.22811,1259.48569 C1124.68528,1259.6607 1124.99035,1260.09288 1125,1260.57919 L1125,1260.54726 Z M1074.50521,1256.46858 L1074.50521,1308.60547 L1091.29393,1308.60547 L1091.29393,1261.46516 L1074.50521,1256.46858 Z M1062.44436,1308.57354 L1072.09304,1308.57354 L1072.09304,1257.39446 L1062.44436,1261.38535 L1062.44436,1308.57354 Z M1093.73826,1308.57354 L1110.49481,1308.57354 L1110.49481,1256.50051 L1093.7061,1261.46516 L1093.73826,1308.57354 Z M1122.58783,1261.37736 L1112.93914,1257.38648 L1112.93914,1308.60547 L1122.58783,1308.60547 L1122.58783,1261.37736 Z M1105.25236,1265.44008 C1104.58625,1265.44008 1104.04627,1265.97612 1104.04627,1266.63735 L1104.04627,1270.8597 C1104.04627,1271.52093 1104.58625,1272.05697 1105.25236,1272.05697 C1105.91846,1272.05697 1106.45844,1271.52093 1106.45844,1270.8597 L1106.45844,1266.63735 C1106.45844,1265.97612 1105.91846,1265.44008 1105.25236,1265.44008 L1105.25236,1265.44008 Z M1098.94855,1265.44008 C1098.28245,1265.44008 1097.74246,1265.97612 1097.74246,1266.63735 L1097.74246,1270.8597 C1097.74246,1271.52093 1098.28245,1272.05697 1098.94855,1272.05697 C1099.61465,1272.05697 1100.15464,1271.52093 1100.15464,1270.8597 L1100.15464,1266.63735 C1100.15466,1266.31703 1100.02539,1266.01005 1099.79571,1265.78506 C1099.56604,1265.56006 1099.25512,1265.43581 1098.93247,1265.44008 L1098.94855,1265.44008 Z M1105.25236,1276.47886 C1104.58625,1276.47886 1104.04627,1277.0149 1104.04627,1277.67613 L1104.04627,1281.89848 C1104.04627,1282.55971 1104.58625,1283.09575 1105.25236,1283.09575 C1105.91846,1283.09575 1106.45844,1282.55971 1106.45844,1281.89848 L1106.45844,1277.70806 C1106.46712,1277.38503 1106.3439,1277.07223 1106.11676,1276.84075 C1105.88963,1276.60926 1105.57788,1276.47875 1105.25236,1276.47886 Z M1098.94855,1276.47886 C1098.28245,1276.47886 1097.74246,1277.0149 1097.74246,1277.67613 L1097.74246,1281.89848 C1097.74246,1282.55971 1098.28245,1283.09575 1098.94855,1283.09575 C1099.61465,1283.09575 1100.15464,1282.55971 1100.15464,1281.89848 L1100.15464,1277.70806 C1100.16342,1277.38224 1100.03802,1277.06695 1099.80737,1276.83497 C1099.57672,1276.603 1099.26077,1276.4744 1098.93247,1276.47886 L1098.94855,1276.47886 Z M1105.25236,1287.52563 C1104.58625,1287.52563 1104.04627,1288.06166 1104.04627,1288.72289 L1104.04627,1292.94525 C1104.04627,1293.60648 1104.58625,1294.14251 1105.25236,1294.14251 C1105.91846,1294.14251 1106.45844,1293.60648 1106.45844,1292.94525 L1106.45844,1288.72289 C1106.45844,1288.06166 1105.91846,1287.52563 1105.25236,1287.52563 Z M1098.93247,1287.52563 C1098.26637,1287.52563 1097.72638,1288.06166 1097.72638,1288.72289 L1097.72638,1292.94525 C1097.72638,1293.60648 1098.26637,1294.14251 1098.93247,1294.14251 C1099.59857,1294.14251 1100.13855,1293.60648 1100.13855,1292.94525 L1100.13855,1288.72289 C1100.13855,1288.06166 1099.59857,1287.52563 1098.93247,1287.52563 L1098.93247,1287.52563 Z M1105.23628,1297.83009 C1104.57017,1297.83009 1104.03019,1298.36612 1104.03019,1299.02735 L1104.03019,1303.24971 C1104.03019,1303.91094 1104.57017,1304.44697 1105.23628,1304.44697 C1105.90238,1304.44697 1106.44236,1303.91094 1106.44236,1303.24971 L1106.44236,1299.02735 C1106.44242,1298.3723 1105.91217,1297.83882 1105.25236,1297.83009 L1105.23628,1297.83009 Z M1098.93247,1297.83009 C1098.26637,1297.83009 1097.72638,1298.36612 1097.72638,1299.02735 L1097.72638,1303.24971 C1097.72638,1303.91094 1098.26637,1304.44697 1098.93247,1304.44697 C1099.59857,1304.44697 1100.13855,1303.91094 1100.13855,1303.24971 L1100.13855,1299.02735 C1100.13855,1298.36612 1099.59857,1297.83009 1098.93247,1297.83009 L1098.93247,1297.83009 Z" transform="translate(-1059 -1253)" fill="#393C41" fill-rule="nonzero" stroke="#393C41" stroke-width=".4"/>
</svg>
