<svg xmlns="http://www.w3.org/2000/svg" viewBox="0 0 70 61" class="design-iconfont">
  <path d="M473.477852,1251.26731 L473.492523,1251.47649 L473.490427,1266.90499 L500.576788,1273.73393 C501.15066,1273.87884 501.582045,1274.35706 501.670805,1274.94674 L501.687572,1275.16859 L501.687572,1308.05399 C500.576788,1308.05399 499.673973,1308.05399 498.753426,1308.05399 L498.753426,1276.32224 L473.488331,1269.95604 L473.488331,1308.0392 C489.101317,1308.0392 500.811056,1308.0392 508.617549,1308.0392 C508.864704,1308.0392 509.387688,1308.15809 509.686671,1308.48178 C509.945136,1308.76159 510,1309.2305 510,1309.47429 C510,1309.68435 509.950228,1310.16342 509.686671,1310.47569 C509.39079,1310.82625 508.86556,1311 508.622757,1311 C493.700967,1311 471.318281,1310.9998 441.474701,1310.99939 C440.700263,1311.00342 440.0561,1310.39989 440.003444,1309.62093 C439.950788,1308.84197 440.507778,1308.15591 441.275598,1308.05399 L441.474701,1308.04131 L447.055866,1308.0392 L447.055866,1265.69217 C447.056083,1265.25048 447.252101,1264.83199 447.5903,1264.5512 L447.768444,1264.42443 L471.268859,1250.21085 C471.689916,1249.9561 472.209477,1249.93062 472.653072,1250.14297 C473.096666,1250.35532 473.405459,1250.77734 473.475756,1251.26731 L473.477852,1251.26731 Z M470,1254 L450,1266.45048 L450,1308 L470,1308 L470,1254 Z M463.470828,1296 C464.276085,1296.00413 464.941597,1296.61396 464.996388,1297.39791 C465.051178,1298.18186 464.476675,1298.87421 463.679448,1298.98498 L463.470828,1299 L458.545194,1299 C457.733737,1299.00407 457.058781,1298.39199 457.003608,1297.602 C456.948435,1296.812 457.532051,1296.11623 458.336574,1296.01286 L458.545194,1296 L463.470828,1296 L463.470828,1296 Z M488.495992,1296 C489.213718,1295.9997 489.836974,1296.4801 490,1297.15928 C489.938385,1297.50529 489.889837,1297.85338 489.854451,1298.20284 C489.624946,1298.62848 489.197668,1298.9199 488.7077,1298.98498 L488.495992,1299 L483.55173,1299 C482.736841,1299.00407 482.05903,1298.39199 482.003624,1297.602 C481.948217,1296.812 482.534301,1296.11623 483.342227,1296.01286 L483.55173,1296 L488.495992,1296 L488.495992,1296 Z M463.470828,1287 C464.276085,1287.00413 464.941597,1287.61396 464.996388,1288.39791 C465.051178,1289.18186 464.476675,1289.87421 463.679448,1289.98498 L463.470828,1290 L458.545194,1290 C457.733737,1290.00407 457.058781,1289.39199 457.003608,1288.602 C456.948435,1287.812 457.532051,1287.11623 458.336574,1287.01286 L458.545194,1287 L463.470828,1287 L463.470828,1287 Z M488.470408,1287 C489.275886,1287.00413 489.941581,1287.61396 489.996387,1288.39791 C490.051192,1289.18186 489.476531,1289.87421 488.679086,1289.98498 L488.470408,1290 L483.545618,1290 C482.733939,1290.00407 482.058797,1289.39199 482.003609,1288.602 C481.948421,1287.812 482.532197,1287.11623 483.336941,1287.01286 L483.545618,1287 L488.470408,1287 L488.470408,1287 Z M463.457894,1277 C464.267729,1276.99593 464.941336,1277.60801 464.996399,1278.39799 C465.051461,1279.18798 464.469013,1279.88375 463.666098,1279.98712 L463.457894,1280 L458.542106,1280 C457.732271,1280.00407 457.058664,1279.39199 457.003601,1278.60201 C456.948539,1277.81202 457.530987,1277.11625 458.333902,1277.01288 L458.542106,1277 L463.457894,1277 L463.457894,1277 Z" transform="translate(-440 -1250)" fill="#393C41" fill-rule="nonzero"/>
</svg>
