<svg xmlns="http://www.w3.org/2000/svg" viewBox="0 0 38 38" class="design-iconfont">
  <path d="M50.1170913,3.16666667 L43.2576571,3.16666667 C42.7842631,3.16666667 42.3807966,3.33469799 42.0442391,3.66925135 C41.7099454,4.00632015 41.5416667,4.40904194 41.5416667,4.88219598 L41.5416667,11.7417978 C41.5416667,12.2164611 41.7101969,12.6209437 42.0442391,12.9547425 C42.3807966,13.2913082 42.7842631,13.4583333 43.2576571,13.4583333 L50.1170913,13.4583333 C50.5907369,13.4583333 50.994958,13.2913082 51.3292517,12.9547425 C51.6663123,12.6209437 51.8333333,12.2164611 51.8333333,11.7415463 L51.8333333,4.88219598 C51.8333333,4.40929346 51.6663123,4.00606863 51.3292517,3.66925135 C50.9947065,3.33469799 50.5907369,3.16666667 50.1170913,3.16666667 M42.8092785,0 L49.7753321,0 C51.216567,0 52.4491012,0.510369152 53.4698694,1.53110745 C54.4906377,2.55184576 55,3.78306664 55,5.22528097 L55,12.1908748 C55,13.6330892 54.4906377,14.8650764 53.4698694,15.8858147 C52.4491012,16.9062976 51.216567,17.4166667 49.7753321,17.4166667 L42.8092785,17.4166667 C41.3660001,17.4166667 40.135254,16.9062975 39.1144857,15.8858147 C38.0937175,14.8650764 37.5833333,13.6328337 37.5833333,12.1908748 L37.5833333,5.22528097 C37.5833333,3.78306664 38.0937175,2.55184576 39.1144857,1.53110745 C40.1355094,0.510369152 41.3657446,0 42.8092785,0 M50.1170913,24.5416667 L43.2576571,24.5416667 C42.7842631,24.5416667 42.3807966,24.7109433 42.0442391,25.0442145 C41.7099454,25.3817617 41.5416667,25.7852085 41.5416667,26.2583278 L41.5416667,33.1171752 C41.5416667,33.5907976 41.7101969,33.9960051 42.0442391,34.3295278 C42.3807966,34.6660689 42.7842631,34.8333333 43.2576571,34.8333333 L50.1170913,34.8333333 C50.5907369,34.8333333 50.994958,34.6660689 51.3292517,34.3297794 C51.6663123,33.9960051 51.8333333,33.5907976 51.8333333,33.1171752 L51.8333333,26.2583278 C51.8333333,25.7852085 51.6663123,25.3817616 51.3292517,25.0442145 C50.9947065,24.7109433 50.5907369,24.5416667 50.1170913,24.5416667 M42.8092785,20.5833333 L49.7753321,20.5833333 C51.216567,20.5833333 52.4491012,21.0937175 53.4698694,22.1142303 C54.4906377,23.1349985 55,24.3654892 55,25.8087676 L55,32.7745658 C55,34.2155452 54.4906377,35.4480794 53.4698694,36.4688476 C52.4491012,37.4896159 51.216567,38 49.7753321,38 L42.8092785,38 C41.3660001,38 40.135254,37.4896159 39.1144857,36.4688476 C38.0937175,35.4480794 37.5833333,34.2158006 37.5833333,32.7745658 L37.5833333,25.8087676 C37.5833333,24.3654891 38.0937175,23.1349985 39.1144857,22.1142303 C40.135254,21.0937175 41.3657446,20.5833333 42.8092785,20.5833333 M28.7426783,3.95833333 L21.8828248,3.95833333 C21.4092023,3.95833333 21.0062586,4.12688146 20.6692145,4.46121051 C20.3359433,4.79830677 20.1666667,5.20106137 20.1666667,5.67425397 L20.1666667,33.1169095 C20.1666667,33.5906053 20.3359433,33.9958755 20.6692145,34.3294499 C21.0062586,34.666043 21.4092023,34.8333333 21.8828248,34.8333333 L28.7426783,34.8333333 C29.2163007,34.8333333 29.6205021,34.666043 29.9547794,34.3297015 C30.2918235,33.9958755 30.4583333,33.5906053 30.4583333,33.1169095 L30.4583333,5.67400242 C30.4583333,5.20106137 30.291572,4.79780369 29.9547794,4.46095897 C29.6202505,4.12637834 29.2163007,3.95833333 28.7424267,3.95833333 M22.2252043,0 L29.1917177,0 C30.6334001,0 31.8648583,0.506159998 32.8853262,1.51847999 C33.906305,2.53079999 34.4166667,3.75186666 34.4166667,5.18218665 L34.4166667,32.8178133 C34.4166667,34.2468667 33.906305,35.4692 32.8855817,36.48152 C31.8648583,37.49384 30.6334001,38 29.1917177,38 L22.2249489,38 C20.7822449,38 19.5507866,37.49384 18.5305741,36.48152 C17.5098508,35.4692 17,34.24712 17,32.8178133 L17,5.18218665 C17,3.75186666 17.5098508,2.53079999 18.5305741,1.51847999 C19.5507866,0.506159998 20.7822448,0 22.2249489,0" transform="translate(-17)" fill="#FFF" fill-rule="nonzero"/>
</svg>
