<svg xmlns="http://www.w3.org/2000/svg" viewBox="0 0 41 39" class="design-iconfont">
  <defs>
    <filter id="oiusic1kr__jf090p2coa">
      <feColorMatrix in="SourceGraphic" values="0 0 0 0 1.000000 0 0 0 0 1.000000 0 0 0 0 1.000000 0 0 0 1.000000 0"/>
    </filter>
  </defs>
  <g transform="translate(-34)" filter="url(#oiusic1kr__jf090p2coa)" fill="none" fill-rule="evenodd">
    <g fill="#000" fill-rule="nonzero">
      <path d="M39.8671875,20.5171875 L36.65625,4.6921875 C36.0984375,1.940625 33.984375,0 31.5515625,0 L8.521875,0 C6.0609375,0 3.928125,1.940625 3.3703125,4.6875 L0.15,20.56875 C-0.61875,24.365625 1.8984375,27.9984375 5.3015625,27.9984375 L34.7625,27.9984375 C38.146875,27.9984375 40.6453125,24.3375 39.8671875,20.5171875 L39.8671875,20.5171875 Z M35.5453125,23.41875 C35.2125,23.90625 34.903125,23.9671875 34.7625,23.9671875 L5.3015625,23.9671875 C5.128125,23.9671875 4.8046875,23.8875 4.471875,23.409375 C4.134375,22.9265625 3.9328125,22.1859375 4.1015625,21.3703125 L7.3265625,5.484375 C7.5796875,4.246875 8.3390625,4.0265625 8.5265625,4.0265625 L31.55625,4.0265625 C31.6640625,4.0265625 31.8515625,4.0640625 32.0859375,4.2796875 C32.325,4.5 32.5921875,4.8984375 32.7140625,5.4890625 L35.925,21.3140625 C36.0890625,22.1625 35.8828125,22.9265625 35.5453125,23.41875 Z" transform="translate(34)"/>
      <path d="M20.015625,25.9828125 C21.13125,25.9828125 22.03125,26.8875 22.03125,27.9984375 L22.03125,36 C22.03125,37.115625 21.1265625,38.015625 20.015625,38.015625 C18.9046875,38.015625 18,37.1109375 18,36 L18,27.9984375 C18,26.8875 18.9046875,25.9828125 20.015625,25.9828125 Z" transform="translate(34)"/>
      <path d="M30.01875,36 C30.01875,37.115625 29.1140625,38.015625 28.003125,38.015625 L12.0046875,38.015625 C10.8890625,38.015625 9.9890625,37.1109375 9.9890625,36 C9.9890625,34.884375 10.89375,33.984375 12.0046875,33.984375 L28.003125,33.984375 C29.11875,33.984375 30.01875,34.884375 30.01875,36 L30.01875,36 Z M2.015625,15.984375 L2.015625,20.015625 L4.378125,20.015625 L5.19375,15.984375 L2.015625,15.984375 Z M38.015625,15.984375 L34.8328125,15.984375 L35.653125,20.015625 L38.015625,20.015625 L38.015625,15.984375 Z" transform="translate(34)"/>
      <path d="M5.19375,15.984375 L4.378125,20.015625 L35.653125,20.015625 L34.8328125,15.984375 L5.19375,15.984375 Z M4.003125,7.9828125 L4.003125,12.0140625 L6,12.0140625 L6.815625,7.9828125 L4.003125,7.9828125 Z M36.0046875,7.9828125 L33.2109375,7.9828125 L34.0265625,12.0140625 L36.0046875,12.0140625 L36.0046875,7.9828125 Z" transform="translate(34)"/>
      <path d="M6.815625,7.9828125 L6,12.0140625 L34.0265625,12.0140625 L33.2109375,7.9828125 L6.815625,7.9828125 Z M11.1515625,25.6875 L15.1359375,26.3109375 L15.4171875,23.9671875 L11.3578125,23.9671875 L11.1515625,25.6875 Z M17.9953125,2.3109375 L14.0109375,1.6875 L13.734375,4.03125 L17.7890625,4.03125 L17.9953125,2.3109375 Z" transform="translate(34)"/>
      <path d="M13.734375,4.03125 L11.3578125,23.9671875 L15.4171875,23.9671875 L17.7890625,4.03125 L13.734375,4.03125 Z M26.0015625,1.6921875 L22.0171875,2.3109375 L22.2234375,4.03125 L26.2828125,4.03125 L26.0015625,1.6921875 Z M24.8765625,26.3109375 L28.8609375,25.6921875 L28.6546875,23.9671875 L24.6,23.9671875 L24.8765625,26.3109375 Z M22.2234375,4.03125 L24.6,23.9671875 L28.6546875,23.9671875 L26.2828125,4.03125 L22.2234375,4.03125 Z" transform="translate(34)"/>
    </g>
  </g>
</svg>
