<svg xmlns="http://www.w3.org/2000/svg" viewBox="0 0 36 40" class="design-iconfont">
  <g fill="#FFF" fill-rule="nonzero" stroke="#FFF">
    <path d="M17.2223077,38.3093407 C16.6737363,38.3093407 16.1251648,38.1721978 15.6293407,37.8873626 L1.78846154,30.0385714 C0.786263736,29.4689011 0.153296703,28.3928571 0.153296703,27.242967 L0.037118496,11.3238462 C0.0267032967,10.173956 0.638571429,9.09791209 1.63021978,8.51769231 L15.3550549,0.457912088 C16.3467033,-0.122307692 17.580989,-0.132857143 18.5831868,0.436813187 L32.6456044,8.3489011 C33.5950549,8.88692308 34.1858242,9.89967033 34.1858242,10.9862637 L34.1858242,27.1374725 C34.1858242,28.202967 33.6161538,29.2051648 32.6878022,29.7537363 L18.8469231,37.8768132 C18.3510989,38.1616484 17.791978,38.3093407 17.2223077,38.3093407 Z M16.9902198,2.5467033 C16.8636264,2.5467033 16.7475824,2.57835165 16.6420879,2.64164835 L2.9067033,10.7014286 C2.69571429,10.828022 2.55857143,11.0601099 2.55857143,11.3132967 L2.68516484,27.2324176 C2.68516484,27.4856044 2.82230769,27.7071429 3.04384615,27.8337363 L16.8847253,35.6930769 C17.1062637,35.8196703 17.37,35.8091209 17.580989,35.6930769 L31.4218681,27.57 C31.5695604,27.4856044 31.6645055,27.3168132 31.6645055,27.1374725 L31.6645055,10.9862637 C31.6645055,10.8069231 31.5695604,10.6381319 31.4113187,10.5537363 L17.3489011,2.64164835 C17.2328571,2.57835165 17.1168132,2.5467033 16.9902198,2.5467033 Z" stroke-width=".8" transform="translate(1 1)"/>
    <g stroke-width="1.2">
      <path d="M10.1589437,7.08048679 C9.99015248,7.08048679 9.82136127,7.03828899 9.67788874,6.95389339 L0.529405228,1.96611317 C0.0399107223,1.69604723 -0.145759607,1.07995932 0.124306327,0.590464814 C0.394372261,0.100970308 1.01046017,-0.0847000215 1.49995468,0.185365913 L10.1589437,4.91151976 L18.7504162,0.126288989 C19.2399107,-0.143776945 19.8559986,0.0334538246 20.1260646,0.52294833 C20.3961305,1.01244284 20.2188997,1.62853075 19.7294052,1.89859668 L10.6484382,6.95389339 C10.4965261,7.03828899 10.3277349,7.08048679 10.1589437,7.08048679 Z" transform="translate(8.2 13.8)"/>
      <path d="M10.2264602,17.7480912 C9.66944918,17.7480912 9.21371292,17.3007945 9.21371292,16.7437835 L9.14619644,6.0761791 C9.14619644,5.51916811 9.59349314,5.06343185 10.1505041,5.05499229 C10.7075151,5.05499229 11.1632514,5.50228899 11.1716909,6.05929998 L11.2392074,16.7269044 C11.2392074,17.2923549 10.7919107,17.7480912 10.2264602,17.7480912 L10.2264602,17.7480912 Z" transform="translate(8.2 13.8)"/>
    </g>
  </g>
</svg>
