<svg xmlns="http://www.w3.org/2000/svg" viewBox="0 0 36 38" class="design-iconfont">
  <g fill="#FFF" fill-rule="nonzero">
    <path d="M14.2983051,11.8220339 L21.5440678,11.8220339 C21.6864407,11.8220339 21.8084746,11.7305085 21.8542373,11.5983051 L24.0915254,4.70338983 C24.1372881,4.57118644 24.0864407,4.42372881 23.9745763,4.34237288 L18.1118644,0.0813559322 C18.0559322,0.0406779661 17.9898305,0.0203389831 17.9237288,0.0203389831 C17.8576271,0.0203389831 17.7915254,0.0406779661 17.7355932,0.0813559322 L11.8728814,4.34237288 C11.7610169,4.42372881 11.7101695,4.57118644 11.7559322,4.70338983 L13.9932203,11.5983051 C14.0288136,11.7305085 14.1559322,11.8220339 14.2983051,11.8220339 L14.2983051,11.8220339 Z M17.9186441,3.97118644 L20.3338983,5.72542373 L19.4135593,8.56779661 L16.4288136,8.56779661 L15.5084746,5.72542373 L17.9186441,3.97118644 Z M17.7305085,32.8677966 C17.7864407,32.9084746 17.8525424,32.9288136 17.9186441,32.9288136 C17.9847458,32.9288136 18.0508475,32.9084746 18.1067797,32.8677966 L24,28.5864407 C24.0966102,28.5152542 24.1474576,28.3932203 24.1322034,28.2762712 L21.8186441,13.1338983 C21.7932203,12.9762712 21.6559322,12.859322 21.4983051,12.859322 L14.3389831,12.859322 C14.1813559,12.859322 14.0440678,12.9762712 14.0186441,13.1338983 L11.7050847,28.2762712 C11.6847458,28.3983051 11.7355932,28.5152542 11.8372881,28.5864407 L17.7305085,32.8677966 L17.7305085,32.8677966 Z M16.8559322,16.1135593 L18.9813559,16.1135593 L20.6440678,27 L17.9186441,28.9830508 L15.1932203,27 L16.8559322,16.1135593 L16.8559322,16.1135593 Z"/>
    <path d="M34.520339,8.41016949 L25.9728814,5.49661017 L24.9254237,8.5779661 L32.5728814,11.1864407 L32.5728814,34.6525424 L3.26440678,34.6525424 L3.26440678,11.1864407 L10.9169492,8.5779661 L9.86949153,5.49661017 L1.24576271,8.43559322 C0.493220339,8.73050847 0.00508474576,9.44237288 0.00508474576,10.2508475 L0.00508474576,35.9542373 C0.00508474576,37.0322034 0.879661017,37.9067797 1.95762712,37.9067797 L33.8694915,37.9067797 C34.9474576,37.9067797 35.8220736,37.0322034 35.8220736,35.9542373 L35.8220736,10.2508475 C35.8271186,9.44745763 35.3440678,8.73559322 34.520339,8.41016949 Z"/>
  </g>
</svg>
