<svg xmlns="http://www.w3.org/2000/svg" viewBox="0 0 42 39" class="design-iconfont">
  <g fill="#FFF" fill-rule="nonzero">
    <path d="M38.0683594,3.48372698 C33.6902344,-0.899085522 26.5277344,-1.14283552 21.0011719,2.74778948 C15.4699219,-1.14752302 8.31210938,-0.899085522 3.93398438,3.47903948 C-1.31132812,8.72435198 -1.31132812,17.2602895 3.93398438,22.5102895 L18.4746094,37.0509145 C19.1496094,37.7259145 20.0449219,38.096227 21.0011719,38.096227 C21.9574219,38.096227 22.8527344,37.7259145 23.5277344,37.0509145 L38.0683594,22.5102895 C43.3136719,17.264977 43.3136719,8.72903948 38.0683594,3.48372698 Z M35.5417969,19.983727 L21.0011719,34.5290395 L6.46054688,19.983727 C2.60742188,16.130602 2.60742188,9.85872698 6.46054688,6.00560198 C8.17617188,4.28997698 10.3183594,3.56810198 12.4746094,3.56810198 C15.0808594,3.56810198 17.7152344,4.61810198 19.6746094,6.22122698 C20.4433594,6.85403948 21.5589844,6.85403948 22.3277344,6.22122698 C25.9042969,3.28685198 31.7496094,2.21341448 35.5417969,6.00560198 C39.3949219,9.86341448 39.3949219,16.130602 35.5417969,19.983727 Z"/>
    <path d="M14.2980469,5.78997698 C9.61992187,5.78997698 5.81367187,9.59622698 5.81367187,14.274352 C5.81367187,15.258727 6.61523437,16.0602895 7.59960937,16.0602895 C8.58398437,16.0602895 9.38554687,15.258727 9.38554687,14.274352 C9.38554687,11.564977 11.5886719,9.36185198 14.2980469,9.36185198 C15.2824219,9.36185198 16.0839844,8.56028948 16.0839844,7.57591448 C16.0839844,6.59153948 15.2871094,5.78997698 14.2980469,5.78997698 Z"/>
  </g>
</svg>
