<svg xmlns="http://www.w3.org/2000/svg" viewBox="0 0 12 16" class="design-iconfont">
  <path d="M12,5.69037658 C12,5.80195259 11.9971223,5.90794979 11.9913669,6.0083682 C11.9856115,6.10878661 11.9769784,6.21478382 11.9654676,6.32635983 C11.8618705,7.25244072 11.6517986,8.14225941 11.3352518,8.99581589 C11.018705,9.84937238 10.618705,10.6694561 10.1352518,11.4560669 C9.65179856,12.2426778 9.09352518,12.9986053 8.46043166,13.7238494 C7.82733814,14.4490935 7.14244605,15.1464435 6.4057554,15.8158996 C6.30215828,15.9386332 6.16978418,16 6.00863309,16 C5.83597123,16 5.69784173,15.9386332 5.5942446,15.8158996 C4.85755396,15.1464435 4.16978418,14.4435147 3.53093526,13.707113 C2.89208633,12.9707113 2.32805756,12.2008368 1.83884893,11.3974895 C1.34964031,10.5941423 0.946762608,9.76011158 0.630215837,8.89539749 C0.313669065,8.03068339 0.109352521,7.1297071 0.0172662035,6.19246862 C0.0172662035,6.10320781 0.0143885029,6.0195258 0.00863310175,5.9414226 C0.00287770058,5.86331939 0,5.77963738 0,5.69037658 C0,4.90934449 0.15827338,4.17294282 0.47482014,3.48117156 C0.791366901,2.78940029 1.22014388,2.18688983 1.76115107,1.67364018 C2.30215826,1.16039053 2.93812948,0.753138086 3.66906473,0.451882852 C4.39999998,0.150627617 5.1798561,0 6.00863308,0 C6.83741006,0 7.61438847,0.150627617 8.33956832,0.451882852 C9.06474817,0.753138086 9.69784169,1.16039053 10.2388489,1.67364018 C10.7798561,2.18688983 11.2086331,2.78940029 11.5251798,3.48117156 C11.8417266,4.17294282 12,4.90934449 12,5.69037658 L12,5.69037658 Z M6.00940438,9 C6.42319749,9 6.81191222,8.91987179 7.17554857,8.75961538 C7.53918493,8.59935897 7.85579935,8.38461538 8.12539184,8.11538462 C8.39498433,7.84615386 8.60815048,7.52884616 8.76489028,7.16346154 C8.92163008,6.79807691 9,6.4102564 9,6 C9,5.5897436 8.9216301,5.20192309 8.76489028,4.83653846 C8.60815045,4.47115384 8.39498431,4.15384614 8.12539184,3.88461538 C7.85579938,3.61538462 7.53918495,3.40064103 7.17554857,3.24038462 C6.81191219,3.08012821 6.42319746,3 6.00940438,3 C5.5956113,3 5.20689657,3.08012821 4.84326019,3.24038462 C4.4796238,3.40064103 4.15987459,3.61538462 3.88401254,3.88461538 C3.60815049,4.15384614 3.39184955,4.47115384 3.23510972,4.83653846 C3.0783699,5.20192309 3,5.5897436 3,6 C3,6.4102564 3.07836992,6.79807691 3.23510972,7.16346154 C3.39184952,7.52884616 3.60815046,7.84615386 3.88401254,8.11538462 C4.15987461,8.38461538 4.47962383,8.59935897 4.84326019,8.75961538 C5.20689654,8.91987179 5.59561127,9 6.00940438,9 Z" fill="#FFF" fill-rule="nonzero"/>
</svg>
