<svg xmlns="http://www.w3.org/2000/svg" viewBox="0 0 16 16" class="design-iconfont">
  <path d="M15.6880109,48.6861422 L12.3681434,45.366156 C11.9511248,44.9501571 11.2760829,44.9501571 10.8590642,45.366156 L10.1045246,46.1206923 C9.67770359,46.5475114 8.29560366,46.122693 7.08649963,44.9134609 C5.8773956,43.7042289 5.451775,42.322802 5.87926295,41.8954493 L6.63380256,41.140913 C7.04980332,40.7238962 7.04980332,40.0488573 6.63380256,39.6318405 L3.31380166,36.3119877 C2.89682871,35.8960041 2.2218288,35.8960041 1.80485585,36.3119877 L1.05031624,37.0665239 C0.492781229,37.6240565 0.153191734,38.3573851 0.0407510622,39.2462361 C-0.0635533264,40.070664 0.0326147792,40.995261 0.326454406,41.9938844 C0.915867607,43.9999345 2.24514843,46.1089547 4.06834125,47.9316059 C5.89153407,49.7542572 8.00016346,51.0840656 10.0055555,51.6734762 C10.7443561,51.8907539 11.4423419,52 12.0892425,52 C12.3113822,52.0003573 12.5333242,51.9867255 12.7537496,51.9591783 C13.6426044,51.8467381 14.3759363,51.5071501 14.9334714,50.9496176 L15.6880109,50.1950813 C16.1039964,49.7781102 16.1039964,49.1031133 15.6880109,48.6861422 Z" transform="translate(0 -36)" fill="#FFF" fill-rule="nonzero"/>
</svg>
