<svg xmlns="http://www.w3.org/2000/svg" viewBox="0 0 31 31" class="design-iconfont">
  <path d="M44.537016,5.79128761 C43.8333797,4.91369434 43.0386845,4.1188929 42.1612086,3.41516245 C42.1239572,3.38618532 42.0867059,3.36134777 42.0494545,3.33237064 C41.6686631,3.03018051 41.2713155,2.74868833 40.8656898,2.48375451 C40.7539358,2.40924188 40.6339037,2.34300842 40.5180107,2.27263538 C40.1786096,2.06565584 39.8309305,1.86695548 39.4708342,1.68481348 C39.3176898,1.60616125 39.1604064,1.53164862 39.003123,1.45713598 C38.672,1.30397112 38.3325989,1.15908544 37.9890588,1.02661853 C37.8110802,0.956245487 37.6289626,0.890012034 37.4468449,0.827918171 C37.1074439,0.712009627 36.7597647,0.612659446 36.4079465,0.521588448 C36.2175508,0.471913357 36.0312941,0.418098676 35.8367594,0.376702768 C35.464246,0.293910951 35.0793155,0.231817088 34.6985241,0.178002407 C34.5246845,0.153164862 34.354984,0.115908544 34.1811444,0.0993501805 C33.6223743,0.0372563177 33.0553262,0 32.475861,0 C31.9005348,0 31.3334866,0.0372563177 30.7705775,0.0993501805 C30.596738,0.120048135 30.4228984,0.153164862 30.2531979,0.178002407 C29.8682674,0.231817088 29.4874759,0.293910951 29.1149626,0.376702768 C28.9204278,0.418098676 28.7341711,0.471913357 28.5437754,0.521588448 C28.1919572,0.612659446 27.8484171,0.712009627 27.509016,0.827918171 C27.3268984,0.890012034 27.1447807,0.956245487 26.9668021,1.02661853 C26.623262,1.15908544 26.283861,1.29983153 25.952738,1.45713598 C25.7954545,1.53164862 25.6381711,1.60616125 25.4850267,1.68481348 C25.1249305,1.86695548 24.7772513,2.06565584 24.4378503,2.27263538 C24.3219572,2.34300842 24.2060642,2.40924188 24.0901711,2.48375451 C23.6804064,2.74868833 23.2871979,3.0343201 22.9022674,3.33237064 C22.865016,3.36134777 22.8277647,3.38618532 22.7905134,3.41516245 C21.9130374,4.1188929 21.1183422,4.91369434 20.4147059,5.79128761 C18.2831016,8.44476534 17,11.8102527 17,15.4779302 C17,24.0261853 23.9287487,30.96 32.48,30.96 C41.0312513,30.96 47.96,24.0303249 47.96,15.4779302 C47.9517219,11.8102527 46.6686203,8.44476534 44.537016,5.79128761 Z M42.5749584,23.04 C41.3344044,22.1690106 39.7228809,21.4835096 37.88,21.0197884 C38.0874238,19.6245924 38.2150693,18.1285874 38.2589474,16.56 L45.08,16.56 C44.8685873,18.9915121 43.9670914,21.2133416 42.5749584,23.04 Z M19.88,16.56 L26.7010526,16.56 C26.7449307,18.1255293 26.8765651,19.6265006 27.08,21.0225654 C25.2371191,21.4825405 23.6255956,22.1725031 22.3850416,23.04 C20.9968975,21.2122042 20.0954017,18.9889913 19.88,16.56 Z M35.72,28.08 C36.2966962,26.9086154 36.7840451,25.4423077 37.1658018,23.76 C38.6278485,24.1421538 39.8380983,24.678 40.76,25.2761538 C39.326382,26.5763077 37.6125383,27.5483077 35.72,28.08 Z M32.7124876,28.0683243 C32.6336079,28.0683243 32.5588797,28.08 32.48,28.08 C32.4011203,28.08 32.3263921,28.0683243 32.2475124,28.0683243 C31.6164745,27.5545946 30.6491598,25.9122162 29.96,23.184 C30.7529489,23.0944865 31.5915651,23.04 32.48,23.04 C33.3684349,23.04 34.2028995,23.0944865 35,23.184 C34.3108402,25.9122162 33.3435255,27.5507027 32.7124876,28.0683243 Z M29.24,28.08 C27.341871,27.5483077 25.6266452,26.5763077 24.2,25.2761538 C25.1226452,24.678 26.333871,24.1421538 27.7970968,23.76 C28.1750968,25.4423077 28.6669032,26.9086154 29.24,28.08 Z M32.48,20.6644311 C31.478398,20.6644311 30.5214018,20.7506587 29.5846809,20.88 C29.4062578,19.5908982 29.2846058,18.1465868 29.24,16.56 L35.72,16.56 C35.6753942,18.1465868 35.5537422,19.5908982 35.3753191,20.88 C34.4426533,20.7549701 33.481602,20.6644311 32.48,20.6644311 Z M29.24,14.4 C29.2846058,12.8091018 29.4062578,11.3691018 29.5846809,10.08 C30.5173467,10.2093413 31.478398,10.2955689 32.48,10.2955689 C33.481602,10.2955689 34.4426533,10.2093413 35.3753191,10.08 C35.5537422,11.3691018 35.6753942,12.8134132 35.72,14.4 L29.24,14.4 Z M32.48,7.92 C31.5915651,7.92 30.7571005,7.86444094 29.96,7.77316535 C30.6076442,5.14998425 31.5043822,3.51496063 32.1354201,2.89587402 C32.2516639,2.89190551 32.3637562,2.88 32.48,2.88 C32.5962438,2.88 32.7083361,2.89190551 32.8245799,2.89587402 C33.4514662,3.51496063 34.3482043,5.14601575 35,7.77316535 C34.2070511,7.86444094 33.3684349,7.92 32.48,7.92 L32.48,7.92 Z M35.72,2.88 C37.6126055,3.42267062 39.3259553,4.39264095 40.76,5.68308605 C39.8220347,6.28130564 38.6047643,6.81543027 37.1415385,7.2 C36.7663524,5.52925816 36.2869479,4.06362018 35.72,2.88 L35.72,2.88 Z M29.24,2.88 C28.6730521,4.06362018 28.1936476,5.52498516 27.8184615,7.2 C26.3552357,6.81543027 25.1379653,6.28130564 24.2,5.68308605 C25.6340447,4.39264095 27.3473945,3.42267062 29.24,2.88 L29.24,2.88 Z M27.08,9.91228554 C26.8724612,11.3162179 26.744745,12.8215905 26.7008426,14.4 L19.88,14.4 C20.1114856,11.9694928 21.0334368,9.74592361 22.4303326,7.92 C23.663592,8.77615529 25.2600443,9.45783344 27.08,9.91228554 L27.08,9.91228554 Z M38.2591574,14.4 C38.215255,12.8266333 38.0835477,11.3181477 37.88,9.91509387 C39.6959645,9.45687109 41.296408,8.77967459 42.5296674,7.92 C43.9305543,9.74883605 44.8485144,11.9710138 45.08,14.4 L38.2591574,14.4 L38.2591574,14.4 Z" transform="translate(-17)" fill="#FFF" fill-rule="nonzero"/>
</svg>
